<svg id="Layer_1" data-name="Layer 1" xmlns="http://www.w3.org/2000/svg" viewBox="0 0 512 512"><title>yelp-glyph</title><g id="Yelp"><circle id="back" cx="256" cy="256" r="256" fill="#262626"/><g id="yelp-2" data-name="yelp"><path d="M152.33,250.68c-4.67,7.45-6.62,31-5,46.56.56,5.14,1.5,9.43,2.86,12a10,10,0,0,0,8.56,5.77c2.28.13,3.71-.26,46.74-14.1,0,0,19.13-6.11,19.23-6.15,4.75-1.2,8-5.59,8.28-11.2s-2.67-10.81-7.55-12.64l-13.5-5.5c-46.25-19.08-48.32-19.84-50.66-19.86C157.71,245.43,154.52,247.23,152.33,250.68Z" fill="#fff"/><path d="M255.79,392.82c.76-2.16.84-3.66,1-48.89,0,0,.11-20,.14-20.17.3-4.9-2.86-9.34-8.06-11.35s-11.09-.78-14.33,3.23c0,0-9.43,11.21-9.46,11.21-32.42,38.06-33.76,39.82-34.54,42.07a9,9,0,0,0-.52,4.14,10.92,10.92,0,0,0,2.63,5.87c7.5,9,43.54,22.2,55,20.25C251.66,398.43,254.54,396.19,255.79,392.82Z" fill="#fff"/><path d="M328.86,377.07c10.87-4.31,34.59-34.48,36.24-46.08.58-4-.68-7.51-3.46-9.74-1.83-1.37-3.23-1.9-46.23-16,0,0-18.89-6.24-19.11-6.37-4.55-1.76-9.77-.13-13.29,4.21s-4.19,10.28-1.29,14.71l7.59,12.35c25.54,41.49,27.49,44.41,29.34,45.85,2.84,2.23,6.46,2.6,10.21,1.07Z" fill="#fff"/><path d="M306.66,270.32c48.88-11.84,50.77-12.47,52.7-13.71,3-2,4.45-5.34,4.19-9.41a2.19,2.19,0,0,0,0-.42c-1.26-12-22.3-43.23-32.65-48.29-3.67-1.76-7.36-1.63-10.39.41-1.91,1.23-3.27,3.08-29.45,38.88,0,0-11.84,16.12-12,16.28-3.11,3.79-3.14,9.23-.13,13.86,3.16,4.84,8.5,7.2,13.4,5.84,0,0-.21.34-.27.41C294.5,273.24,298.82,272.18,306.66,270.32Z" fill="#fff"/><path d="M257.57,230h0c-.84-19.37-6.66-105.64-7.35-109.63-1-3.64-3.8-6.21-7.89-7.24-12.46-3.09-60.16,10.28-69,19.39-2.84,3-3.89,6.62-3,9.84,1.38,2.86,60.48,95.83,60.48,95.83,8.73,14.17,15.87,12,18.2,11.23S258.38,246.47,257.57,230Z" fill="#fff"/></g></g></svg>